# xmcd
#
# Track frame offsets:
#	150
#	15761
#	31986
#	43082
#	78379
#	89785
#	103200
#	114677
#	137233
#	148938
#	161387
#	173543
#	189028
#	204351
#	217324
#	226908
#	236938
#	256747
#	275297
#	290691
#	304125
#	314959
#
# Disc length: 4386 seconds
#
# Revision: 0
# Processed by: cddbd v1.5.2PL0 Copyright (c) Steve Scherf et al.
# Submitted via: audiograbber 1.83.01
#
DISCID=43112016
DTITLE=Memphis Slim and Willie Dixon - Songs Of ... - At The Village Gate
DYEAR=2015
DGENRE=Blues
TTITLE0=Joggie Boogie
TTITLE1=Stewball
TTITLE2=John Henry
TTITLE3=Kansas City No1, 2 and 3
TTITLE4=Have You Ever Been To Nashville Pen?
TTITLE5=Roll And Tumble
TTITLE6=Beer Drinking Woman
TTITLE7=Chicago House Rent Party
TTITLE8=44 Blues
TTITLE9=Unlucky
TTITLE10=Crazy For My Baby
TTITLE11=My Baby Don't Stand No Cheating
TTITLE12=Stewball (Live)
TTITLE13=Slop Boogie
TTITLE14=Misery Falls Like Rain
TTITLE15=Wish Me Well
TTITLE16=T For Texas
TTITLE17=I Just Want To Make Love To You
TTITLE18=I'll Try To Find My Baby
TTITLE19=One Mor Time
TTITLE20=Nobody Loves Me
TTITLE21=We Are Going To Rock
EXTD=
EXTT0=
EXTT1=
EXTT2=
EXTT3=
EXTT4=
EXTT5=
EXTT6=
EXTT7=
EXTT8=
EXTT9=
EXTT10=
EXTT11=
EXTT12=
EXTT13=
EXTT14=
EXTT15=
EXTT16=
EXTT17=
EXTT18=
EXTT19=
EXTT20=
EXTT21=
PLAYORDER=
